<svg id="visual" viewBox="0 0 900 100" width="900" height="100" xmlns="http://www.w3.org/2000/svg" xmlns:xlink="http://www.w3.org/1999/xlink" version="1.1"><path d="M0 24L100 24L200 30L300 17L400 15L500 28L600 17L700 19L800 17L900 25L900 101L800 101L700 101L600 101L500 101L400 101L300 101L200 101L100 101L0 101Z" fill="#eb9a28"></path><path d="M0 35L100 32L200 46L300 45L400 42L500 41L600 38L700 29L800 31L900 35L900 101L800 101L700 101L600 101L500 101L400 101L300 101L200 101L100 101L0 101Z" fill="#d5871e"></path><path d="M0 54L100 57L200 50L300 56L400 50L500 60L600 47L700 53L800 48L900 53L900 101L800 101L700 101L600 101L500 101L400 101L300 101L200 101L100 101L0 101Z" fill="#c07514"></path><path d="M0 70L100 60L200 65L300 60L400 70L500 72L600 69L700 65L800 61L900 61L900 101L800 101L700 101L600 101L500 101L400 101L300 101L200 101L100 101L0 101Z" fill="#aa6409"></path><path d="M0 82L100 87L200 77L300 88L400 85L500 87L600 78L700 88L800 85L900 88L900 101L800 101L700 101L600 101L500 101L400 101L300 101L200 101L100 101L0 101Z" fill="#955300"></path></svg>